<?xml version="1.0" standalone="no"?>
<!DOCTYPE svg PUBLIC "-//W3C//DTD SVG 20010904//EN"
 "http://www.w3.org/TR/2001/REC-SVG-20010904/DTD/svg10.dtd">
<svg version="1.0" xmlns="http://www.w3.org/2000/svg"
 width="567.000000pt" height="567.000000pt" viewBox="0 0 567.000000 567.000000"
 preserveAspectRatio="xMidYMid meet">
<metadata>
Created by potrace 1.14, written by Peter Selinger 2001-2017
</metadata>
<g transform="translate(0.000000,567.000000) scale(0.100000,-0.100000)"
fill="#000000" stroke="none">
<path d="M2659 5486 c-2 -2 -40 -7 -84 -10 -44 -4 -120 -14 -170 -22 -49 -9
-99 -18 -110 -19 -11 -2 -20 -4 -20 -5 0 -1 -11 -4 -25 -6 -14 -3 -43 -9 -65
-15 -22 -6 -47 -13 -55 -14 -47 -10 -312 -104 -320 -114 -3 -3 -12 -7 -20 -9
-22 -5 -278 -131 -293 -145 -7 -7 -34 -23 -60 -37 -26 -13 -47 -27 -47 -31 0
-3 -11 -11 -24 -17 -20 -9 -151 -104 -210 -152 -87 -71 -243 -223 -324 -316
-42 -47 -194 -248 -219 -289 -222 -362 -349 -691 -399 -1034 -4 -25 -8 -55
-10 -66 -19 -103 -26 -484 -11 -620 7 -71 32 -229 42 -275 3 -14 8 -36 11 -50
15 -76 76 -279 94 -312 6 -10 10 -27 10 -37 0 -11 4 -22 9 -25 5 -3 12 -18 15
-32 8 -30 135 -297 145 -304 4 -3 15 -21 24 -41 9 -20 23 -42 32 -49 8 -7 15
-16 15 -21 0 -9 48 -87 60 -99 3 -3 18 -23 33 -46 15 -22 35 -49 45 -60 10
-10 24 -28 32 -40 71 -101 291 -322 419 -421 9 -7 34 -27 56 -44 148 -115 405
-262 585 -334 52 -20 104 -41 115 -45 29 -12 59 -23 65 -25 3 0 39 -11 80 -24
41 -13 82 -25 90 -26 8 -2 38 -9 65 -15 55 -13 52 -13 180 -34 152 -25 174
-27 380 -31 213 -3 368 7 505 35 25 5 56 12 70 14 70 14 91 18 160 37 121 34
263 82 345 118 82 36 281 136 283 143 2 4 8 8 14 8 6 0 30 14 55 30 24 17 48
30 54 30 5 0 9 5 9 10 0 6 7 10 15 10 8 0 15 5 15 10 0 6 7 10 15 10 8 0 15 5
15 10 0 6 4 10 10 10 5 0 18 6 27 14 10 8 54 43 98 77 44 35 98 79 119 98 101
92 301 301 288 301 -3 0 1 6 10 13 19 15 138 175 138 185 0 5 8 17 18 28 23
24 91 140 151 254 57 109 170 395 186 470 2 8 12 49 24 90 53 197 75 381 76
640 0 209 -9 333 -36 470 -6 30 -12 64 -13 75 -3 16 -18 83 -41 175 -16 65
-82 251 -116 327 -10 24 -19 47 -19 53 0 5 -5 10 -12 10 -6 0 -9 3 -5 6 6 7
-90 198 -125 247 -11 15 -16 27 -11 27 4 0 4 4 -2 8 -5 4 -32 41 -59 82 -43
66 -120 172 -151 207 -5 6 -23 28 -40 49 -40 49 -252 261 -301 301 -21 17 -50
40 -63 52 -13 12 -27 21 -30 21 -3 0 -21 14 -38 31 -18 16 -33 26 -33 22 0 -4
-4 -3 -8 3 -13 20 -323 213 -352 220 -3 0 -36 15 -75 33 -186 87 -412 162
-589 197 -95 18 -149 27 -266 41 -53 6 -446 14 -451 9z"/>
</g>
</svg>
